<?xml version="1.0" encoding="UTF-8"?><svg id="uuid-53038be3-68a1-437f-8359-771925a82059" xmlns="http://www.w3.org/2000/svg" viewBox="0 0 241.6599 309.4092"><path d="M226.6599,0H15C6.7157,0,0,6.7157,0,15v279.4092c0,8.2842,6.7157,15,15,15h164.6965c6.6304,0,12.9893-2.6339,17.6775-7.3223l36.9636-36.9636c4.6885-4.6884,7.3223-11.0471,7.3223-17.6776V15c0-8.2843-6.7158-15-15-15ZM43.4493,47.4473c0-2.2095,1.7909-4,4-4h146.7614c2.209,0,4,1.7905,4,4v34.4761c0,2.209-1.791,4-4,4h-112.7614c-20.9868,0-38-17.0132-38-38v-.4761ZM197.0408,240.4126l-24.3779,24.3779c-1.5625,1.562-4.0947,1.562-5.6571,0l-74.2537-74.2534c-2.5199-2.52-6.8285-.7354-6.8285,2.8286v68.5928c.0001,2.209-1.7908,4-3.9999,4h-34.4762c-2.2091,0-4-1.791-4-4v-108.2852s-.0001-4.4761-.0001-4.4761c0-20.9868,17.0132-38,38-38h112.7609c2.2092,0,4,1.7905,4,4v34.4761c0,2.209-1.7908,4-4,4h-68.5928c-3.5636,0-5.3483,4.3086-2.8285,6.8286l74.2538,74.2534c1.5625,1.5625,1.5625,4.0952,0,5.6572Z" style="fill:#272727; stroke-width:0px;"/></svg>